<svg width="225" height="234" viewBox="0 0 225 234" fill="none" xmlns="http://www.w3.org/2000/svg">
<g id="Elements" clip-path="url(#clip0_9_10)">
<path id="Vector" d="M186.842 92.2C192.692 99.1832 189.602 110.333 200.468 114.65C200.672 112.804 200.702 110.943 200.558 109.092C197.318 93.0958 194.04 76.8811 190.497 60.8304C189.913 58.2189 188.297 54.5939 186.232 53.8014C182.439 52.2972 180.538 55.8446 179 59.0386C174.247 68.9931 169.37 78.9021 164.503 88.8992C170.92 90.4632 170.92 90.4632 181.417 74.9938C184.428 109.119 158.084 136.023 124.945 132.264C125.52 128.971 126.191 125.727 126.62 122.45C128.225 113.086 126.188 103.474 120.926 95.5907C116.774 89.5902 111.32 86.0876 103.953 87.1154C96.5865 88.1432 92.6429 93.6773 90.5542 100.533C85.8987 115.311 91.4591 128.739 105.229 136.074C106.905 136.985 108.476 138.161 110.667 139.564C99.6134 155.796 85.5189 167.344 66.8725 171.955C37.8976 179.06 21.9535 159.074 16.7912 138.967C16.1161 136.47 15.9665 133.884 15.3525 129.773C11.7777 135.28 12.3583 139.9 12.9522 144.37C15.2888 162.03 30.4786 177.981 48.0332 181.318C58.9768 183.464 70.3336 181.984 80.3878 177.103C95.4683 170.283 108.286 159.273 117.312 145.386C118.228 143.973 119.196 142.629 120.468 140.804C135.895 141.556 150.999 140.306 164.288 130.634C177.274 121.175 181.312 106.467 186.842 92.2ZM115.258 130.714C99.7896 126.873 92.5821 115.105 97.6229 102.351C99.0105 99.0698 101.593 96.4367 104.845 94.9875C109.048 93.4405 112.211 96.6671 114.36 100.395C119.958 110.1 119.49 119.941 115.258 130.714Z" fill="#FFD600"/>
</g>
<defs>
<clipPath id="clip0_9_10">
<rect width="135.144" height="190.735" fill="white" transform="matrix(-0.781064 -0.624451 -0.624451 0.781064 224.661 84.3907)"/>
</clipPath>
</defs>
</svg>
