<svg width="147" height="147" viewBox="0 0 147 147" fill="none" xmlns="http://www.w3.org/2000/svg">
<g id="Group 42926">
<circle id="Ellipse 26" cx="73.7113" cy="73.7113" r="69.1752" fill="white"/>
<g id="Group">
<path id="Vector" d="M65.2134 1.46147C63.3864 3.38997 61.1534 3.79596 58.6159 2.78096C55.8754 1.61372 55.4187 1.71523 53.0842 4.25272C50.8005 6.68869 49.5825 6.99319 46.2837 6.02895C44.812 5.62296 44.4567 5.72446 43.594 6.68869C39.331 11.7129 39.2295 11.7637 36.6413 11.4592C33.6978 11.1547 32.6828 11.6622 32.2261 13.6414C31.6171 16.4834 29.7393 18.1074 26.5928 18.5134C23.6494 18.8686 22.8374 19.5791 22.8374 21.8629C22.8374 24.2481 21.0611 26.1766 18.0669 27.0393L15.2249 27.9021V30.2873C15.2249 33.5353 13.8547 35.616 10.8604 36.9355L8.4752 38.0013L8.7797 40.8432C9.13495 44.4972 8.62745 45.766 6.14071 47.39C3.65398 49.0647 3.45098 49.5215 4.31372 52.3634C4.66897 53.6322 4.87197 55.1547 4.71972 55.7129C4.46597 56.7279 4.61822 56.7787 10.9619 56.8294C14.5652 56.8802 18.7774 57.0324 20.2999 57.2862C22.2791 57.5399 20.3506 57.6922 13.7024 57.7429C5.78547 57.7937 4.11073 57.9459 3.09573 58.6564C1.92849 59.4684 1.92849 59.5191 2.84198 59.8744C3.34948 60.0774 7.46021 60.3311 11.9262 60.3819L20.0461 60.4834L10.5052 60.8386C5.27797 61.0416 0.913495 61.2954 0.811995 61.3969C0.710496 61.4984 0.811995 62.1074 1.06574 62.7164C1.47174 63.8329 1.67474 63.8836 9.74394 63.9851L18.0161 64.0866L10.4037 64.3911C6.24221 64.5941 2.74048 64.7971 2.68973 64.7971C2.58824 64.8479 2.53749 65.3554 2.53749 65.9136C2.53749 66.8779 2.89273 66.9286 8.52595 66.9794C13.3472 67.0301 14.0069 67.1316 11.9262 67.4361C10.5559 67.6898 7.8662 67.8928 6.03922 67.8928C3.09573 67.9436 2.63898 68.0958 2.38524 68.9586C2.13149 69.9228 2.38524 69.9736 5.73472 70.0243C7.76471 70.0243 10.4037 70.2273 11.6724 70.4303C13.4487 70.7856 12.4844 70.8871 7.56171 70.9378C1.57324 70.9886 0 71.3438 0 72.6126C0 72.8156 1.87774 73.0186 4.21223 73.0693C6.49596 73.1201 10.3022 73.2723 12.6874 73.4753C16.4937 73.8306 16.0369 73.8813 8.3737 73.9321C-0.152249 74.0336 -0.202999 74.0336 0.761246 74.9978C1.62399 75.8605 2.94348 76.0636 9.64244 76.4696L17.5086 76.9263L9.99769 76.977C2.48674 77.0785 2.48674 77.0785 2.63898 78.195C2.79123 79.3115 2.99423 79.3623 9.89619 79.616L17.0012 79.9205L9.79469 80.022C5.78547 80.0728 2.53749 80.3265 2.53749 80.5803C2.53749 80.834 2.38524 81.3923 2.23299 81.849C1.97924 82.5088 2.94348 82.661 9.74394 82.8133L17.5086 82.9655L9.54095 83.067C2.33449 83.1685 1.52249 83.27 1.06574 84.1328C0.761246 84.6403 0.710496 85.1985 0.862745 85.4015C1.01499 85.5537 5.17647 85.7567 10.0992 85.8075L19.0311 85.909L10.5559 86.0612C5.83622 86.1627 2.02999 86.4165 2.02999 86.6702C2.02999 86.8732 2.43599 87.4315 2.94348 87.8882C3.75548 88.5987 5.22722 88.751 11.9769 88.8525L20.0461 88.9032L12.2814 89.4107C4.92272 89.8675 4.51672 89.969 4.71972 90.8825C4.87197 91.4407 4.66897 92.9125 4.31372 94.1812C3.45098 97.0232 3.65398 97.4799 6.14071 99.1547C8.62745 100.779 9.13495 102.047 8.7797 105.701L8.4752 108.543L10.8604 109.508C13.8039 110.776 15.2249 113.009 15.2249 116.257V118.643L17.9654 119.455C21.2134 120.419 22.2791 121.434 22.6851 124.073C23.1419 127.27 23.5479 127.676 26.5928 128.031C29.7393 128.437 31.6171 130.061 32.2261 132.903C32.6828 134.882 33.6978 135.39 36.6413 135.085C39.2295 134.781 39.331 134.832 43.594 139.856C44.4567 140.82 44.812 140.922 46.2837 140.516C49.6332 139.551 50.8005 139.856 53.1349 142.393L55.3679 144.779L57.4994 144.119C61.2041 142.901 63.2341 143.155 65.1119 144.982C67.1419 146.961 68.2584 147.012 70.5421 145.337C72.7243 143.764 73.9423 143.764 76.1246 145.337C78.4083 147.012 79.5248 146.961 81.5548 144.982C83.4325 143.155 85.4625 142.901 89.1672 144.119L91.2987 144.779L93.5317 142.393C95.8662 139.856 97.0334 139.551 100.383 140.516C101.855 140.922 102.21 140.82 103.073 139.856C107.437 134.781 107.437 134.781 110.178 135.085C112.258 135.339 112.867 135.238 113.679 134.426C114.238 133.867 114.694 132.954 114.694 132.446C114.694 131.888 115.253 130.772 115.963 129.909C117.029 128.691 117.79 128.336 120.074 128.031C123.017 127.676 123.829 126.966 123.829 124.682C123.829 122.297 125.606 120.368 128.6 119.505L131.442 118.643V116.257C131.442 113.009 132.863 110.776 135.806 109.508L138.191 108.543L137.887 105.651C137.532 102.2 138.293 100.474 140.78 98.9517C143.013 97.5814 143.216 96.9724 142.353 94.1812C141.998 92.9125 141.795 91.39 141.947 90.8317C142.201 89.8167 141.998 89.766 138.496 89.7152C136.415 89.6645 132.812 89.5122 130.427 89.3092C126.57 88.954 126.976 88.9032 134.537 88.8525C141.998 88.751 143.063 88.6495 143.774 87.8375C144.281 87.33 144.637 86.7717 144.637 86.5687C144.637 86.3657 140.678 86.1627 135.908 86.0612L127.128 85.909L136.314 85.8075C141.338 85.7567 145.652 85.5537 145.804 85.4015C145.956 85.1985 145.905 84.6403 145.601 84.1328C145.144 83.27 144.332 83.1685 137.633 83.067L130.173 82.9655L137.43 82.8133C143.774 82.661 144.687 82.5088 144.434 81.849C144.281 81.3923 144.129 80.834 144.129 80.5803C144.129 80.3265 140.983 80.0728 137.176 80.022L130.173 79.9205L137.024 79.616C143.622 79.3623 143.875 79.3115 144.028 78.195C144.18 77.0785 144.18 77.0785 136.669 77.0278L129.158 76.9263L137.024 76.4696C143.216 76.1143 145.043 75.8098 145.804 75.1501C146.717 74.3381 146.311 74.2873 138.496 74.0336L130.173 73.7798L138.445 73.3231C142.962 73.0693 146.667 72.7141 146.667 72.5618C146.667 71.3438 145.043 70.9886 139.105 70.9378C134.03 70.8871 133.218 70.7856 135.248 70.4811C136.669 70.2273 139.308 70.0243 141.186 70.0243C144.281 69.9736 144.535 69.8721 144.281 68.9586C144.028 68.0958 143.571 67.9436 140.881 67.8928C139.206 67.8421 136.517 67.6898 134.994 67.4361C132.66 67.1316 133.167 67.0809 138.191 66.9794C143.774 66.9286 144.129 66.8779 144.129 65.9136C144.129 65.3554 144.078 64.8479 144.028 64.7971C143.926 64.7971 140.475 64.5941 136.263 64.3911L128.651 64.0866L136.923 63.9851C144.992 63.8836 145.195 63.8329 145.601 62.7164C145.855 62.1074 145.956 61.4984 145.855 61.3969C145.753 61.2954 141.49 61.0416 136.415 60.8386L127.128 60.4834L134.994 60.3819C139.308 60.3311 143.317 60.0774 143.825 59.8744C144.738 59.5191 144.738 59.4684 143.571 58.6564C142.607 57.9459 140.932 57.7937 133.472 57.7429C127.077 57.6922 125.352 57.5399 127.382 57.2862C128.904 57.0324 132.863 56.8802 136.212 56.8294C142.048 56.7787 142.201 56.7279 141.947 55.7129C141.795 55.1547 141.998 53.6322 142.353 52.3127C143.165 49.6737 143.013 49.1662 140.577 47.5422C138.09 45.8675 137.532 44.3957 137.887 40.9447L138.191 38.0013L135.806 36.9355C132.812 35.616 131.442 33.5353 131.442 30.2873V27.9021L128.6 27.0393C125.606 26.1766 123.829 24.2481 123.829 21.8629C123.829 19.5791 123.017 18.8686 120.074 18.5134C116.927 18.1074 115.05 16.4834 114.441 13.6414C114.035 11.7129 112.867 11.1039 110.279 11.4592C107.742 11.8144 105.356 10.5457 104.494 8.46494C103.58 6.2827 102.261 5.52145 100.332 6.0797C97.0334 6.99319 95.8662 6.68869 93.5317 4.15121L91.2987 1.76598L89.1672 2.42572C85.4625 3.64371 83.4325 3.38997 81.5548 1.56297C79.5248 -0.41626 78.4083 -0.46701 76.1246 1.20773C75.1603 1.91823 73.9423 2.47647 73.3333 2.47647C72.7243 2.47647 71.5063 1.91823 70.5421 1.20773C68.3091 -0.46701 66.9896 -0.41626 65.2134 1.46147ZM88.5582 7.95744C102.007 11.3577 112.157 17.1939 121.698 27.0393C128.854 34.398 133.979 42.6195 137.075 51.5514L137.988 54.2412H135.248C132.558 54.2412 132.507 54.2412 131.898 52.3127C130.833 49.014 128.042 43.4315 125.453 39.5238C117.029 26.5826 104.138 17.3969 88.6597 13.2862C83.8385 11.9667 82.7728 11.8652 73.3333 11.8652C63.8939 11.8652 62.8281 11.9667 58.0069 13.2862C38.2145 18.5641 22.0761 32.8248 15.1742 51.0439L13.9562 54.2412H11.3172H8.6782L9.69319 51.2977C17.0012 29.9828 36.692 12.5757 58.8697 7.85594C64.7059 6.63794 65.0611 6.63794 75.1096 6.79019C82.4175 6.94244 85.4118 7.1962 88.5582 7.95744ZM83.4833 14.7579C102.362 17.5999 120.429 31.7591 128.346 50.029C129.209 52.0082 129.919 53.7844 129.919 53.9367C129.919 54.3427 91.1465 54.1904 85.0058 53.7337C80.692 53.4292 81.5548 53.3784 90.842 53.3277C104.544 53.1754 108.807 52.8202 108.046 51.9067C107.589 51.3484 105.509 51.1962 99.2664 51.1454C94.8005 51.0947 88.1522 50.8917 84.4983 50.7394L77.9008 50.3335L86.5283 50.2827C100.281 50.1304 106.676 49.6737 106.016 48.811C105.559 48.3542 103.682 48.1512 98.7589 48.1005C95.1049 48.0497 88.9135 47.8467 85.0058 47.6945L77.9008 47.2885L85.2595 47.2377C89.3195 47.187 95.2065 46.984 98.3529 46.781C103.834 46.4765 104.037 46.4257 103.225 45.5122C102.413 44.7002 101.347 44.5987 91.1465 44.4972C83.3818 44.4465 80.9458 44.345 83.2295 44.0912C85.0565 43.8882 89.827 43.6852 93.8362 43.6345L101.144 43.5837L99.9769 42.315C98.8097 41.0462 98.7589 41.0462 89.1165 40.9955C82.519 40.9447 80.1338 40.7925 81.707 40.488C82.9758 40.285 86.8327 40.082 90.3345 40.0312L96.6782 39.9805L95.4602 39.0163C94.5467 38.255 93.5317 38.0013 91.0957 38.0013C89.3702 38.0013 85.8178 37.849 83.1788 37.5953L78.4083 37.24L84.752 36.9863L91.0957 36.7325L88.812 35.616C86.985 34.7025 85.564 34.4488 81.707 34.398C79.068 34.3473 77.6978 34.195 78.662 34.0935C84.8028 33.383 76.4798 32.1143 69.5779 32.7233C65.4671 33.0785 64.4521 33.8905 67.9031 34.0428C68.9181 34.0428 67.3956 34.2458 64.4521 34.4488C60.5951 34.6518 58.6159 35.0578 57.3472 35.7683L55.5709 36.7325L61.9146 36.9863L68.2584 37.24L63.4879 37.5953C60.8489 37.849 57.2964 38.0013 55.6217 38.0013C53.3379 38.0013 52.1707 38.3058 51.2572 39.0163L49.9885 40.0312L56.3322 40.082C59.8339 40.082 63.6909 40.285 64.9596 40.488C66.5329 40.7925 64.1476 40.9447 57.5502 40.9955C47.9077 41.0462 47.857 41.0462 46.6897 42.315L45.5225 43.5837L52.8304 43.6345C56.8397 43.6852 61.7624 43.8882 63.6909 44.0912C66.1776 44.345 63.7924 44.4465 55.7739 44.4972C45.015 44.5987 44.2537 44.6495 43.391 45.6137C42.4775 46.6287 42.5283 46.6287 45.7255 46.6795C47.5017 46.7302 53.4394 46.8825 58.8697 47.0855L68.7659 47.39L54.9619 47.8467C45.1672 48.1512 40.955 48.4557 40.5998 48.9125C39.9908 49.6737 46.6897 50.1304 59.8339 50.2827L68.7659 50.3335L62.1684 50.7394C58.5652 50.8917 51.8662 51.0947 47.4002 51.1454C41.158 51.1962 39.0773 51.3484 38.6205 51.9067C37.8593 52.8202 42.1223 53.1754 55.8247 53.3277C64.9089 53.3784 65.9239 53.4292 61.9146 53.7337C56.1292 54.1904 16.7474 54.3427 16.7474 53.9367C16.7474 53.2262 20.0969 46.0705 21.7209 43.33C25.5271 36.8848 32.6828 29.1201 38.6713 24.9586C52.1707 15.5191 66.7866 12.2204 83.4833 14.7579ZM45.1672 62.6149V64.8986H41.361H37.5548V66.6241V68.3496L39.128 67.5883C41.2595 66.5226 43.9492 67.1824 45.3702 69.1108C46.2837 70.3288 46.3852 71.2423 46.3852 75.9621C46.3852 83.9805 44.812 86.0612 38.7728 85.909C33.8501 85.7567 31.4648 83.3208 31.4648 78.3473V76.0128L34.6621 76.1651L37.8085 76.3173L38.0623 79.1085C38.2653 81.1385 38.519 81.8998 39.0773 81.8998C39.6863 81.8998 39.8385 80.9863 39.8385 76.6218C39.8385 72.8156 39.6355 71.2423 39.2295 71.1408C38.8743 70.9886 38.4175 71.3438 38.2145 71.8513C37.7578 73.1708 37.0473 73.5261 34.9158 73.5261C31.5156 73.5261 31.4648 73.4753 31.4648 67.7406C31.4648 59.7729 30.9066 60.3311 38.6205 60.3311H45.1672V62.6149ZM59.3264 61.1939C59.5802 61.7014 59.9354 63.2239 60.1384 64.6449C60.7474 68.6033 61.2549 68.9078 61.6609 65.6599C62.2699 60.5849 62.4729 60.3311 65.7716 60.3311C69.1211 60.3311 69.1211 59.3161 66.0254 69.6691C64.2491 75.6068 63.9446 77.4338 63.9446 81.24V85.706H60.8997H57.8547V80.9863C57.8039 77.0278 57.4994 75.2008 55.6217 68.7048C54.4037 64.4926 53.4902 60.9401 53.6424 60.6864C53.7439 60.4834 54.9619 60.3311 56.3322 60.3311C58.2099 60.3311 58.9712 60.5341 59.3264 61.1939ZM81.098 63.2239L81.2503 65.9136H79.2203H77.1396V68.1973C77.1396 70.4811 77.1396 70.4811 78.9158 70.4811C80.692 70.4811 80.692 70.4811 80.692 72.7648C80.692 75.0486 80.692 75.0486 78.9158 75.0486H77.1396V77.5353V80.0728L79.3218 80.225L81.4533 80.3773L81.6055 83.067L81.7578 85.7567L76.0231 85.6045L70.2883 85.4522L70.1361 73.5261C70.0854 66.9794 70.1361 61.3461 70.2883 60.9401C70.4406 60.4834 71.8108 60.3311 75.7186 60.4326L80.9458 60.5849L81.098 63.2239ZM95.5109 62.3611C96.0184 64.5941 98.9619 84.1835 98.9619 85.0462C98.9619 85.503 97.9977 85.706 95.714 85.706H92.466L92.1615 83.4223C91.857 81.646 91.6032 81.1385 90.842 81.1385C90.0807 81.1385 89.827 81.646 89.5225 83.4223L89.218 85.706H85.8685H82.5698L82.8743 83.27C84.143 72.8156 85.8178 61.1939 86.0715 60.7879C86.2238 60.5341 88.3045 60.3819 90.7405 60.4326L95.1557 60.5849L95.5109 62.3611ZM112.969 61.5491C114.593 62.6656 115.202 64.2896 115.202 67.7406C115.202 70.0243 114.999 70.7348 114.035 71.5976L112.867 72.6633L114.035 73.8306C115.1 74.8963 115.202 75.4546 115.202 80.3773V85.706H112.157H109.163L109.01 80.2758C108.858 75.5053 108.757 74.7948 107.945 74.6426C107.437 74.5411 107.082 74.6426 107.133 74.8963C107.183 75.0993 107.183 77.6368 107.133 80.5295L107.082 85.7567L103.935 85.6045L100.738 85.4522L100.586 73.5261C100.535 66.9794 100.586 61.2954 100.738 60.8894C101.144 59.8744 111.142 60.3819 112.969 61.5491ZM15.2249 95.4499C17.2549 101.235 21.7209 108.594 26.3898 113.923C34.5098 123.21 45.9792 130.163 58.3114 133.309C63.2341 134.578 64.5536 134.679 73.3333 134.679C82.113 134.679 83.4325 134.578 88.3552 133.309C108.097 128.285 124.54 113.872 131.492 95.4499L132.71 92.3035H135.349H137.988L136.973 95.1962C133.928 104.128 127.889 113.517 120.835 120.52C111.548 129.655 102.616 134.73 89.5732 138.283C84.752 139.602 83.94 139.704 73.3333 139.704C62.8789 139.704 61.8639 139.602 57.2457 138.333C44.3045 134.882 35.1188 129.655 25.8316 120.47C18.6759 113.415 12.7382 104.128 9.69319 95.1962L8.6782 92.3035H11.3679H14.0577L15.2249 95.4499ZM62.1684 92.811C66.6851 93.1155 66.1269 93.1662 57.2964 93.217C43.4417 93.3692 37.91 93.7752 38.6205 94.6379C39.0773 95.1962 41.2595 95.3484 47.9077 95.3992C52.6782 95.4499 59.3264 95.6529 62.6759 95.8559L68.7659 96.1604L59.8339 96.2619C47.0957 96.4142 39.8893 96.8709 40.5998 97.5814C40.955 97.9367 46.3345 98.3427 54.9619 98.6979C66.2791 99.1547 67.4971 99.2562 61.8639 99.3069C58.0577 99.3577 52.1707 99.5607 48.7705 99.7637C42.8328 100.068 42.6298 100.119 43.4417 101.032C44.2537 101.844 45.3195 101.946 55.7739 102.047C63.7924 102.098 66.1776 102.2 63.6909 102.453C61.7624 102.656 56.8397 102.859 52.8304 102.91L45.5225 102.961L46.6897 104.23C47.857 105.498 47.9077 105.498 57.5502 105.549C64.2491 105.6 66.4314 105.752 64.7059 106.006C63.3356 106.26 59.4279 106.463 56.0784 106.463L49.9885 106.564L51.2065 107.528C52.0692 108.29 53.1349 108.543 55.5202 108.543C57.1949 108.543 60.8997 108.696 63.6909 108.949L68.7659 109.305L62.1684 109.558L55.5709 109.812L57.3472 110.776C58.6159 111.487 60.6459 111.893 64.1984 112.096C66.9896 112.299 68.5629 112.502 67.6494 112.502C64.4014 112.705 65.5686 113.517 69.5271 113.872C73.4856 114.227 80.4383 113.821 81.4533 113.162C81.7578 113.009 80.8443 112.705 79.4233 112.553C77.3933 112.299 77.8501 112.248 81.707 112.147C85.564 112.096 86.985 111.842 88.812 110.929L91.0957 109.812L84.4983 109.558L77.9008 109.305L82.9758 108.949C85.767 108.696 89.4717 108.543 91.1465 108.543C93.5317 108.543 94.5975 108.29 95.4602 107.528L96.6782 106.564L90.5882 106.463C87.2387 106.463 83.3818 106.26 81.9608 106.006C80.2353 105.752 82.4175 105.6 89.1165 105.549C98.7589 105.498 98.8097 105.498 99.9769 104.23L101.144 102.961L93.8362 102.91C89.827 102.859 84.955 102.656 82.9758 102.453C80.489 102.2 82.8743 102.098 90.8927 102.047C101.347 101.946 102.413 101.844 103.225 101.032C104.037 100.119 103.834 100.068 97.8962 99.7637C94.496 99.5607 88.609 99.3577 84.8028 99.3069C79.5755 99.2562 81.2503 99.1547 91.6032 98.7994C101.499 98.4442 105.509 98.1397 105.965 97.6829C106.777 96.8709 100.332 96.4142 86.8327 96.2619L77.9008 96.1604L83.9908 95.8559C87.3402 95.6529 94.09 95.4499 99.0127 95.3992C106.067 95.3484 108.046 95.1962 108.249 94.6379C108.604 93.7244 103.479 93.3692 89.827 93.217C80.5905 93.1662 80.0323 93.1155 84.752 92.811C87.6955 92.608 99.0634 92.405 110.025 92.3542L129.97 92.3035L129.615 93.42C128.651 96.5664 125.961 101.692 123.068 106.006C114.136 119.404 100.078 128.691 84.3968 131.685C78.5098 132.802 68.1569 132.802 62.2699 131.685C50.5467 129.452 39.534 123.616 31.3633 115.293C26.5928 110.421 25.5779 109.203 22.6851 104.686C20.7059 101.641 16.7474 93.5722 16.7474 92.608C16.7474 92.202 55.9769 92.3542 62.1684 92.811Z" fill="#B61111"/>
<path id="Vector_2" d="M71.0496 8.56642C71.0496 8.82017 71.3033 9.07391 71.5571 9.07391C71.8616 9.07391 72.0646 8.82017 72.0646 8.56642C72.0646 8.26192 71.8616 8.05892 71.5571 8.05892C71.3033 8.05892 71.0496 8.26192 71.0496 8.56642Z" fill="#B61111"/>
<path id="Vector_3" d="M73.0796 8.56642C73.0796 8.82017 73.3333 9.07391 73.5871 9.07391C73.8916 9.07391 74.0946 8.82017 74.0946 8.56642C74.0946 8.26192 73.8916 8.05892 73.5871 8.05892C73.3333 8.05892 73.0796 8.26192 73.0796 8.56642Z" fill="#B61111"/>
<path id="Vector_4" d="M75.3633 8.56642C75.2111 8.82017 75.3126 9.07391 75.5663 9.07391C75.8708 9.07391 76.1246 8.82017 76.1246 8.56642C76.1246 8.26192 76.0231 8.05892 75.9216 8.05892C75.7693 8.05892 75.5156 8.26192 75.3633 8.56642Z" fill="#B61111"/>
<path id="Vector_5" d="M64.7059 9.07392C64.5536 9.32767 64.6551 9.58142 64.9089 9.58142C65.2134 9.58142 65.4671 9.32767 65.4671 9.07392C65.4671 8.76943 65.3656 8.56643 65.2641 8.56643C65.1119 8.56643 64.8581 8.76943 64.7059 9.07392Z" fill="#B61111"/>
<path id="Vector_6" d="M66.7358 9.07392C66.8881 9.32767 67.1418 9.58142 67.2941 9.58142C67.3956 9.58142 67.4971 9.32767 67.4971 9.07392C67.4971 8.76943 67.2433 8.56643 66.9388 8.56643C66.6851 8.56643 66.5836 8.76943 66.7358 9.07392Z" fill="#B61111"/>
<path id="Vector_7" d="M81.4533 9.07392C81.3011 9.32767 81.4026 9.58142 81.6563 9.58142C81.9608 9.58142 82.2146 9.32767 82.2146 9.07392C82.2146 8.76943 82.1131 8.56643 82.0116 8.56643C81.8593 8.56643 81.6056 8.76943 81.4533 9.07392Z" fill="#B61111"/>
<path id="Vector_8" d="M62.4221 9.58149C62.4221 9.83524 62.6759 10.089 62.9296 10.089C63.2341 10.089 63.4371 9.83524 63.4371 9.58149C63.4371 9.27699 63.2341 9.074 62.9296 9.074C62.6759 9.074 62.4221 9.27699 62.4221 9.58149Z" fill="#B61111"/>
<path id="Vector_9" d="M85.767 10.1397C85.767 10.3934 86.0208 10.4949 86.2745 10.3427C86.579 10.1904 86.782 9.93665 86.782 9.7844C86.782 9.6829 86.579 9.58141 86.2745 9.58141C86.0208 9.58141 85.767 9.83515 85.767 10.1397Z" fill="#B61111"/>
<path id="Vector_10" d="M89.827 11.104C89.827 11.3577 90.0807 11.6115 90.3345 11.6115C90.639 11.6115 90.842 11.3577 90.842 11.104C90.842 10.7995 90.639 10.5965 90.3345 10.5965C90.0807 10.5965 89.827 10.7995 89.827 11.104Z" fill="#B61111"/>
<path id="Vector_11" d="M91.857 11.6114C91.857 11.8651 92.1107 12.1189 92.3645 12.1189C92.669 12.1189 92.872 11.8651 92.872 11.6114C92.872 11.3069 92.669 11.1039 92.3645 11.1039C92.1107 11.1039 91.857 11.3069 91.857 11.6114Z" fill="#B61111"/>
<path id="Vector_12" d="M52.2722 12.1188C52.2722 12.3726 52.526 12.6263 52.7797 12.6263C53.0842 12.6263 53.2872 12.3726 53.2872 12.1188C53.2872 11.8143 53.0842 11.6113 52.7797 11.6113C52.526 11.6113 52.2722 11.8143 52.2722 12.1188Z" fill="#B61111"/>
<path id="Vector_13" d="M93.887 12.1188C93.887 12.3726 94.1407 12.6263 94.3945 12.6263C94.699 12.6263 94.902 12.3726 94.902 12.1188C94.902 11.8143 94.699 11.6113 94.3945 11.6113C94.1407 11.6113 93.887 11.8143 93.887 12.1188Z" fill="#B61111"/>
<path id="Vector_14" d="M50.2422 12.6264C50.2422 12.8802 50.496 13.1339 50.7497 13.1339C51.0542 13.1339 51.2572 12.8802 51.2572 12.6264C51.2572 12.3219 51.0542 12.1189 50.7497 12.1189C50.496 12.1189 50.2422 12.3219 50.2422 12.6264Z" fill="#B61111"/>
<path id="Vector_15" d="M95.9169 13.1846C95.9169 13.4384 96.1707 13.5399 96.4244 13.3876C96.7289 13.2354 96.9319 12.9816 96.9319 12.8294C96.9319 12.7279 96.7289 12.6264 96.4244 12.6264C96.1707 12.6264 95.9169 12.8801 95.9169 13.1846Z" fill="#B61111"/>
<path id="Vector_16" d="M48.2122 13.6414C48.2122 13.8952 48.466 14.1489 48.7197 14.1489C49.0242 14.1489 49.2272 13.8952 49.2272 13.6414C49.2272 13.3369 49.0242 13.1339 48.7197 13.1339C48.466 13.1339 48.2122 13.3369 48.2122 13.6414Z" fill="#B61111"/>
<path id="Vector_17" d="M97.9468 13.6414C97.9468 13.8952 98.2006 14.1489 98.5051 14.1489C98.7588 14.1489 98.8603 13.8952 98.7081 13.6414C98.5558 13.3369 98.3021 13.1339 98.1498 13.1339C98.0483 13.1339 97.9468 13.3369 97.9468 13.6414Z" fill="#B61111"/>
<path id="Vector_18" d="M99.7231 14.6564C99.8754 14.9102 100.129 15.1639 100.281 15.1639C100.383 15.1639 100.484 14.9102 100.484 14.6564C100.484 14.3519 100.231 14.1489 99.9261 14.1489C99.6724 14.1489 99.5709 14.3519 99.7231 14.6564Z" fill="#B61111"/>
<path id="Vector_19" d="M101.753 15.1639C101.601 15.4176 101.702 15.6714 101.956 15.6714C102.261 15.6714 102.514 15.4176 102.514 15.1639C102.514 14.8594 102.413 14.6564 102.311 14.6564C102.159 14.6564 101.905 14.8594 101.753 15.1639Z" fill="#B61111"/>
<path id="Vector_20" d="M42.6297 16.1789C42.6297 16.4327 42.8835 16.6864 43.1372 16.6864C43.4417 16.6864 43.6447 16.4327 43.6447 16.1789C43.6447 15.8744 43.4417 15.6714 43.1372 15.6714C42.8835 15.6714 42.6297 15.8744 42.6297 16.1789Z" fill="#B61111"/>
<path id="Vector_21" d="M40.8535 17.1939C40.7012 17.4477 40.8027 17.7014 41.0565 17.7014C41.361 17.7014 41.6147 17.4477 41.6147 17.1939C41.6147 16.8894 41.5132 16.6864 41.4117 16.6864C41.2595 16.6864 41.0057 16.8894 40.8535 17.1939Z" fill="#B61111"/>
<path id="Vector_22" d="M105.559 17.7521C105.559 18.0059 105.813 18.1074 106.067 17.9551C106.371 17.8029 106.574 17.5491 106.574 17.3969C106.574 17.2954 106.371 17.1939 106.067 17.1939C105.813 17.1939 105.559 17.4476 105.559 17.7521Z" fill="#B61111"/>
<path id="Vector_23" d="M39.0773 18.2088C39.0773 18.4626 39.331 18.7163 39.6355 18.7163C39.8893 18.7163 39.9908 18.4626 39.8385 18.2088C39.6863 17.9043 39.4325 17.7013 39.2803 17.7013C39.1788 17.7013 39.0773 17.9043 39.0773 18.2088Z" fill="#B61111"/>
<path id="Vector_24" d="M109.112 19.7821C109.112 20.0359 109.366 20.1374 109.619 19.9851C109.924 19.8329 110.127 19.5791 110.127 19.4269C110.127 19.3254 109.924 19.2239 109.619 19.2239C109.366 19.2239 109.112 19.4776 109.112 19.7821Z" fill="#B61111"/>
<path id="Vector_25" d="M33.7486 21.7614C33.5963 22.0151 33.6978 22.2689 33.9516 22.2689C34.2561 22.2689 34.5098 22.0151 34.5098 21.7614C34.5098 21.4569 34.4083 21.2539 34.3068 21.2539C34.1546 21.2539 33.9008 21.4569 33.7486 21.7614Z" fill="#B61111"/>
<path id="Vector_26" d="M112.411 22.2689C112.563 22.5226 112.817 22.7764 112.969 22.7764C113.07 22.7764 113.172 22.5226 113.172 22.2689C113.172 21.9644 112.918 21.7614 112.614 21.7614C112.36 21.7614 112.258 21.9644 112.411 22.2689Z" fill="#B61111"/>
<path id="Vector_27" d="M31.9723 23.2838C31.9723 23.5376 32.2261 23.7913 32.4798 23.7913C32.7843 23.7913 32.9873 23.5376 32.9873 23.2838C32.9873 22.9793 32.7843 22.7763 32.4798 22.7763C32.2261 22.7763 31.9723 22.9793 31.9723 23.2838Z" fill="#B61111"/>
<path id="Vector_28" d="M114.187 23.2838C114.187 23.5376 114.441 23.7913 114.745 23.7913C114.999 23.7913 115.1 23.5376 114.948 23.2838C114.796 22.9793 114.542 22.7763 114.39 22.7763C114.288 22.7763 114.187 22.9793 114.187 23.2838Z" fill="#B61111"/>
<path id="Vector_29" d="M28.9273 25.8214C28.9273 26.0751 29.1811 26.3289 29.4856 26.3289C29.7393 26.3289 29.8408 26.0751 29.6886 25.8214C29.5363 25.5169 29.2826 25.3139 29.1303 25.3139C29.0288 25.3139 28.9273 25.5169 28.9273 25.8214Z" fill="#B61111"/>
<path id="Vector_30" d="M117.232 26.3288C117.232 26.5826 117.486 26.8363 117.739 26.8363C118.044 26.8363 118.247 26.5826 118.247 26.3288C118.247 26.0243 118.044 25.8213 117.739 25.8213C117.486 25.8213 117.232 26.0243 117.232 26.3288Z" fill="#B61111"/>
<path id="Vector_31" d="M27.4048 27.3438C27.4048 27.5976 27.6586 27.8513 27.9123 27.8513C28.2168 27.8513 28.4198 27.5976 28.4198 27.3438C28.4198 27.0393 28.2168 26.8363 27.9123 26.8363C27.6586 26.8363 27.4048 27.0393 27.4048 27.3438Z" fill="#B61111"/>
<path id="Vector_32" d="M118.754 27.8513C118.754 28.105 119.008 28.3588 119.262 28.3588C119.566 28.3588 119.769 28.105 119.769 27.8513C119.769 27.5468 119.566 27.3438 119.262 27.3438C119.008 27.3438 118.754 27.5468 118.754 27.8513Z" fill="#B61111"/>
<path id="Vector_33" d="M25.8823 28.8663C25.8823 29.12 26.1361 29.3738 26.3898 29.3738C26.6943 29.3738 26.8973 29.12 26.8973 28.8663C26.8973 28.5618 26.6943 28.3588 26.3898 28.3588C26.1361 28.3588 25.8823 28.5618 25.8823 28.8663Z" fill="#B61111"/>
<path id="Vector_34" d="M120.277 29.4245C120.277 29.6783 120.531 29.7798 120.784 29.6275C121.089 29.4753 121.292 29.2215 121.292 29.0693C121.292 28.9678 121.089 28.8663 120.784 28.8663C120.531 28.8663 120.277 29.12 120.277 29.4245Z" fill="#B61111"/>
<path id="Vector_35" d="M24.3598 30.3889C24.3598 30.6426 24.6136 30.8964 24.9181 30.8964C25.1718 30.8964 25.2733 30.6426 25.1211 30.3889C24.9688 30.0844 24.7151 29.8814 24.5628 29.8814C24.4613 29.8814 24.3598 30.0844 24.3598 30.3889Z" fill="#B61111"/>
<path id="Vector_36" d="M23.0911 32.4188C23.2434 32.6725 23.4971 32.9263 23.6494 32.9263C23.7509 32.9263 23.8524 32.6725 23.8524 32.4188C23.8524 32.1143 23.5986 31.9113 23.2941 31.9113C23.0404 31.9113 22.9389 32.1143 23.0911 32.4188Z" fill="#B61111"/>
<path id="Vector_37" d="M122.814 32.4188C122.814 32.6725 123.068 32.9263 123.322 32.9263C123.626 32.9263 123.829 32.6725 123.829 32.4188C123.829 32.1143 123.626 31.9113 123.322 31.9113C123.068 31.9113 122.814 32.1143 122.814 32.4188Z" fill="#B61111"/>
<path id="Vector_38" d="M21.8224 33.992C21.8224 34.2458 22.0761 34.3473 22.3299 34.195C22.6344 34.0428 22.8374 33.789 22.8374 33.6368C22.8374 33.5353 22.6344 33.4338 22.3299 33.4338C22.0761 33.4338 21.8224 33.6875 21.8224 33.992Z" fill="#B61111"/>
<path id="Vector_39" d="M124.337 33.9413C124.337 34.195 124.591 34.4488 124.895 34.4488C125.149 34.4488 125.25 34.195 125.098 33.9413C124.946 33.6368 124.692 33.4338 124.54 33.4338C124.438 33.4338 124.337 33.6368 124.337 33.9413Z" fill="#B61111"/>
<path id="Vector_40" d="M20.2999 35.4638C20.2999 35.7175 20.5536 35.9713 20.8074 35.9713C21.1119 35.9713 21.3149 35.7175 21.3149 35.4638C21.3149 35.1593 21.1119 34.9563 20.8074 34.9563C20.5536 34.9563 20.2999 35.1593 20.2999 35.4638Z" fill="#B61111"/>
<path id="Vector_41" d="M125.605 35.9713C125.758 36.2251 126.011 36.4788 126.164 36.4788C126.265 36.4788 126.367 36.2251 126.367 35.9713C126.367 35.6668 126.113 35.4638 125.808 35.4638C125.555 35.4638 125.453 35.6668 125.605 35.9713Z" fill="#B61111"/>
<path id="Vector_42" d="M18.2699 39.067C18.2699 39.3208 18.5236 39.4223 18.7774 39.27C19.0819 39.1178 19.2849 38.864 19.2849 38.7118C19.2849 38.6103 19.0819 38.5088 18.7774 38.5088C18.5236 38.5088 18.2699 38.7625 18.2699 39.067Z" fill="#B61111"/>
<path id="Vector_43" d="M127.889 39.5238C127.889 39.7775 128.143 40.0312 128.397 40.0312C128.701 40.0312 128.904 39.7775 128.904 39.5238C128.904 39.2193 128.701 39.0163 128.397 39.0163C128.143 39.0163 127.889 39.2193 127.889 39.5238Z" fill="#B61111"/>
<path id="Vector_44" d="M17.0012 40.5388C16.8489 40.7926 16.9504 41.0463 17.2042 41.0463C17.5087 41.0463 17.7624 40.7926 17.7624 40.5388C17.7624 40.2343 17.6609 40.0313 17.5594 40.0313C17.4072 40.0313 17.1534 40.2343 17.0012 40.5388Z" fill="#B61111"/>
<path id="Vector_45" d="M129.919 43.0762C129.919 43.33 130.173 43.5837 130.427 43.5837C130.731 43.5837 130.934 43.33 130.934 43.0762C130.934 42.7717 130.731 42.5687 130.427 42.5687C130.173 42.5687 129.919 42.7717 129.919 43.0762Z" fill="#B61111"/>
<path id="Vector_46" d="M14.2099 46.6795C14.2099 46.9333 14.4637 47.0348 14.7174 46.8825C15.0219 46.7303 15.2249 46.4765 15.2249 46.3243C15.2249 46.2228 15.0219 46.1213 14.7174 46.1213C14.4637 46.1213 14.2099 46.375 14.2099 46.6795Z" fill="#B61111"/>
<path id="Vector_47" d="M131.949 46.6288C131.949 46.8825 132.203 47.1363 132.508 47.1363C132.761 47.1363 132.863 46.8825 132.711 46.6288C132.558 46.3243 132.305 46.1213 132.152 46.1213C132.051 46.1213 131.949 46.3243 131.949 46.6288Z" fill="#B61111"/>
<path id="Vector_48" d="M132.711 48.6587C132.558 48.9125 132.66 49.1662 132.914 49.1662C133.218 49.1662 133.472 48.9125 133.472 48.6587C133.472 48.3542 133.37 48.1512 133.269 48.1512C133.117 48.1512 132.863 48.3542 132.711 48.6587Z" fill="#B61111"/>
<path id="Vector_49" d="M12.4337 50.1812C12.2814 50.4349 12.3829 50.6887 12.6367 50.6887C12.9412 50.6887 13.1949 50.4349 13.1949 50.1812C13.1949 49.8767 13.0934 49.6737 12.9919 49.6737C12.8397 49.6737 12.5859 49.8767 12.4337 50.1812Z" fill="#B61111"/>
<path id="Vector_50" d="M133.472 50.6887C133.472 50.9425 133.726 51.1962 133.979 51.1962C134.284 51.1962 134.487 50.9425 134.487 50.6887C134.487 50.3842 134.284 50.1812 133.979 50.1812C133.726 50.1812 133.472 50.3842 133.472 50.6887Z" fill="#B61111"/>
<path id="Vector_51" d="M134.233 52.7188C134.385 52.9725 134.639 53.2263 134.791 53.2263C134.893 53.2263 134.994 52.9725 134.994 52.7188C134.994 52.4143 134.74 52.2113 134.436 52.2113C134.182 52.2113 134.081 52.4143 134.233 52.7188Z" fill="#B61111"/>
<path id="Vector_52" d="M67.6493 18.5641C67.2433 18.7163 67.0911 19.5283 67.2433 20.8986C67.3956 22.0658 67.5986 24.3496 67.8016 25.9735C68.0553 28.6125 68.2076 28.917 69.1718 28.7648C70.1361 28.6125 70.2376 28.3588 70.0853 26.1765C70.0346 24.7048 70.1868 23.7913 70.4913 23.7913C70.7958 23.7913 71.0496 24.4511 71.0496 25.263C71.0496 27.3945 71.5571 28.3588 72.6228 28.3588C73.4348 28.3588 73.5871 27.9528 73.5871 26.1258C73.5871 24.857 73.3841 23.7406 73.1303 23.5376C72.8766 23.3853 72.7751 22.4718 72.9273 21.5076C73.0796 20.4418 72.9781 19.4268 72.5721 18.9701C71.9631 18.2596 69.0196 18.0058 67.6493 18.5641ZM70.8466 20.7971C70.9988 21.1016 70.9481 21.5583 70.6436 21.8628C70.3391 22.1673 70.0853 21.9643 69.8823 21.3046C69.6286 20.1881 70.2376 19.8328 70.8466 20.7971Z" fill="#B61111"/>
<path id="Vector_53" d="M80.5398 19.0716C79.7785 20.4418 77.647 27.9021 77.9008 28.3588C78.4083 29.1708 80.1845 28.9678 80.1845 28.1051C80.1845 27.6991 80.489 27.3438 80.895 27.3438C81.301 27.3438 81.5548 27.7498 81.504 28.2066C81.504 28.7648 81.8593 29.1708 82.519 29.2723C83.8385 29.4753 84.2445 27.9021 84.2445 22.7256C84.2445 20.2388 84.0415 19.2239 83.6355 19.2239C83.2803 19.2239 82.4683 19.0716 81.91 18.9194C81.301 18.7671 80.692 18.8179 80.5398 19.0716ZM81.91 23.9943C81.7578 24.7048 81.4025 25.3138 81.1488 25.3138C80.895 25.3138 80.8443 24.9586 80.9458 24.5526C81.098 24.1466 81.301 23.4361 81.4533 22.9793C81.91 21.6091 82.316 22.5226 81.91 23.9943Z" fill="#B61111"/>
<path id="Vector_54" d="M56.8397 20.7971C56.1799 21.1016 55.5202 21.4061 55.4187 21.4569C55.2664 21.6599 57.8039 30.3888 58.1592 30.7948C58.2099 30.8963 58.7682 30.8456 59.3772 30.6426C60.0369 30.4396 60.3414 30.0336 60.1892 29.4753C59.4787 26.9886 59.3264 25.8214 59.7324 25.8214C60.0369 25.8214 60.4937 26.7349 60.8489 27.8513C61.2042 29.0186 61.7624 29.8813 62.2191 29.8813C63.4879 29.8813 63.5894 28.4603 62.5236 26.2781C61.9654 25.1109 61.6102 23.8929 61.7624 23.4869C61.9147 23.0809 61.6609 22.2181 61.2042 21.5076C60.3414 20.1881 58.9712 19.9344 56.8397 20.7971ZM59.3772 23.3346C59.3772 23.8929 59.1742 24.1974 58.8697 24.0451C58.6159 23.8929 58.3622 23.3854 58.3622 22.9794C58.3622 22.5734 58.6159 22.2689 58.8697 22.2689C59.1742 22.2689 59.3772 22.7256 59.3772 23.3346Z" fill="#B61111"/>
<path id="Vector_55" d="M89.421 25.3646C87.594 29.9828 87.4925 30.6425 88.5583 31.0993C89.2688 31.353 90.3345 29.7291 90.3345 28.3081C90.3345 28.0543 90.5375 27.8513 90.7405 27.8513C90.9942 27.8513 91.1465 28.8156 91.1465 29.9828C91.0957 31.759 91.248 32.165 92.0092 32.165C92.7197 32.165 93.4302 31.0993 94.699 27.8513C96.323 23.7913 96.3737 23.4868 95.5617 22.8778C94.7497 22.3196 94.5467 22.4211 93.7855 24.1466L92.9227 26.0751V23.9943C92.872 22.1673 92.3137 21.2539 91.1465 21.2539C91.045 21.2539 90.2837 23.0808 89.421 25.3646Z" fill="#B61111"/>
<path id="Vector_56" d="M46.5882 25.1109C45.7762 25.5169 45.1672 26.0752 45.1672 26.2782C45.1672 27.0902 48.8212 35.4639 49.1765 35.4639C49.8362 35.4639 50.7497 34.2459 50.7497 33.3324C50.7497 32.2666 51.308 32.1651 52.1707 33.0279C52.6782 33.4846 52.9827 33.4846 53.5917 32.8249C54.3529 32.0636 54.2007 31.7084 51.308 28.1559C49.5825 26.0244 48.1107 24.2989 48.06 24.2989C48.0092 24.3497 47.3495 24.7049 46.5882 25.1109ZM50.2422 30.5919C50.2422 31.4039 49.3287 30.7441 48.8212 29.6277C47.9585 27.7499 48.06 27.5469 49.2272 29.0187C49.7855 29.7292 50.2422 30.4396 50.2422 30.5919Z" fill="#B61111"/>
<path id="Vector_57" d="M101.601 26.9379C101.144 27.3946 101.144 27.6991 101.601 28.2066C102.058 28.7649 101.702 29.5769 100.028 31.9621C97.8961 34.9563 97.6424 36.4788 99.1649 36.4788C99.6216 36.4788 100.89 35.1086 102.108 33.4338C103.682 31.2009 104.494 30.4396 105.103 30.6426C106.727 31.1501 106.828 29.7799 105.255 28.5111C102.971 26.6334 102.21 26.3289 101.601 26.9379Z" fill="#B61111"/>
<path id="Vector_58" d="M38.113 30.5411C37.4025 31.4546 37.504 31.7591 39.7878 34.7026L41.361 36.7326L38.9758 34.8041C36.3368 32.7233 35.9308 32.5711 35.0173 33.6876C34.4591 34.3473 34.6113 34.8041 35.88 36.3773C38.3668 39.5238 38.3668 39.879 35.8293 37.5953C33.9008 35.9206 33.1903 35.5653 32.6828 36.0221C32.2768 36.3266 31.9723 36.7833 31.9723 37.0371C31.9723 37.2401 33.6471 38.8133 35.7278 40.488L39.4325 43.533L40.5998 42.315L41.7163 41.097L40.346 39.3208C38.722 37.1893 39.0773 36.9863 41.2088 38.7625C43.0358 40.285 43.2388 40.3358 44.406 39.0163C45.2687 38.0521 45.2687 37.9506 44 36.1236C43.2388 35.0578 41.767 33.1801 40.7013 31.9621C39.0265 30.0336 38.722 29.8306 38.113 30.5411Z" fill="#B61111"/>
<path id="Vector_59" d="M109.366 35.819C108.604 37.1893 107.285 39.0163 106.422 39.9298C104.95 41.4523 104.9 41.6045 105.712 42.4165C106.524 43.2285 106.676 43.1777 108.198 41.706C109.112 40.8433 111.091 39.5238 112.614 38.7625C115.1 37.5445 115.253 37.3415 114.542 36.631C113.832 35.8698 113.629 35.8698 112.461 36.631C110.685 37.7983 110.482 37.6968 111.446 36.225C112.258 34.9563 112.106 33.4338 111.193 33.4338C110.939 33.4338 110.127 34.4995 109.366 35.819Z" fill="#B61111"/>
<path id="Vector_60" d="M29.1303 44.954C28.8258 46.0705 28.1661 46.3242 26.3898 46.172C25.8823 46.1212 26.0346 46.4257 26.7958 47.0855C27.7093 47.8974 27.8616 48.4049 27.6078 49.5214C27.2526 50.9424 27.2526 50.9424 28.3691 49.9782C29.3841 49.0647 29.4856 49.0647 30.3483 49.8259C31.617 50.9932 32.023 50.8917 31.5155 49.5214C31.1603 48.6587 31.3125 48.1512 32.1245 47.2377L33.1395 46.1212H31.7693C30.8558 46.1212 30.2976 45.766 29.9423 44.954L29.4856 43.8375L29.1303 44.954Z" fill="#B61111"/>
<path id="Vector_61" d="M116.724 44.8525C116.724 45.7152 114.745 46.6795 113.933 46.2227C113.679 46.0705 113.933 46.5272 114.491 47.187C115.354 48.1004 115.506 48.6587 115.151 49.5214C114.644 50.8917 115.05 50.9932 116.318 49.8259C117.181 49.0647 117.283 49.0647 118.298 49.9782C119.414 50.9424 119.414 50.9424 119.059 49.5214C118.805 48.4049 118.957 47.8974 119.871 47.1362L121.038 46.172L119.414 46.1212C118.298 46.1212 117.739 45.8675 117.739 45.4107C117.739 45.0047 117.536 44.4972 117.232 44.345C116.978 44.1927 116.724 44.3957 116.724 44.8525Z" fill="#B61111"/>
<path id="Vector_62" d="M90.3345 69.9736C90.3345 70.6841 90.1823 72.4603 90.03 73.8813C89.7255 76.368 89.7763 76.571 90.7405 76.571C91.7048 76.571 91.7555 76.368 91.5018 73.3738C91.1973 70.0751 90.3853 67.5883 90.3345 69.9736Z" fill="#B61111"/>
<path id="Vector_63" d="M107.386 66.0151C106.93 67.7406 107.031 69.872 107.539 70.1765C108.351 70.684 109.163 69.06 109.01 67.1316C108.858 64.9493 107.894 64.2896 107.386 66.0151Z" fill="#B61111"/>
<path id="Vector_64" d="M11.6724 93.8259C11.6724 94.0797 11.9261 94.3334 12.2306 94.3334C12.4844 94.3334 12.5859 94.0797 12.4336 93.8259C12.2814 93.5214 12.0276 93.3184 11.8754 93.3184C11.7739 93.3184 11.6724 93.5214 11.6724 93.8259Z" fill="#B61111"/>
<path id="Vector_65" d="M12.1799 95.856C12.1799 96.1097 12.4337 96.3635 12.6874 96.3635C12.9919 96.3635 13.1949 96.1097 13.1949 95.856C13.1949 95.5515 12.9919 95.3485 12.6874 95.3485C12.4337 95.3485 12.1799 95.5515 12.1799 95.856Z" fill="#B61111"/>
<path id="Vector_66" d="M133.472 96.4142C133.472 96.6679 133.726 96.7694 133.979 96.6172C134.284 96.4649 134.487 96.2112 134.487 96.0589C134.487 95.9574 134.284 95.8559 133.979 95.8559C133.726 95.8559 133.472 96.1097 133.472 96.4142Z" fill="#B61111"/>
<path id="Vector_67" d="M13.1949 97.9366C13.1949 98.1904 13.4486 98.2919 13.7024 98.1396C14.0069 97.9874 14.2099 97.7337 14.2099 97.5814C14.2099 97.4799 14.0069 97.3784 13.7024 97.3784C13.4486 97.3784 13.1949 97.6322 13.1949 97.9366Z" fill="#B61111"/>
<path id="Vector_68" d="M13.9561 99.9159C14.1084 100.17 14.3621 100.423 14.5144 100.423C14.6159 100.423 14.7174 100.17 14.7174 99.9159C14.7174 99.6114 14.4636 99.4084 14.1591 99.4084C13.9054 99.4084 13.8039 99.6114 13.9561 99.9159Z" fill="#B61111"/>
<path id="Vector_69" d="M131.695 99.9159C131.543 100.17 131.645 100.423 131.898 100.423C132.203 100.423 132.457 100.17 132.457 99.9159C132.457 99.6114 132.355 99.4084 132.254 99.4084C132.101 99.4084 131.848 99.6114 131.695 99.9159Z" fill="#B61111"/>
<path id="Vector_70" d="M15.7324 103.468C15.7324 103.722 15.9862 103.976 16.2399 103.976C16.5444 103.976 16.7474 103.722 16.7474 103.468C16.7474 103.164 16.5444 102.961 16.2399 102.961C15.9862 102.961 15.7324 103.164 15.7324 103.468Z" fill="#B61111"/>
<path id="Vector_71" d="M128.904 106.057C128.904 106.31 129.158 106.412 129.412 106.26C129.716 106.107 129.919 105.854 129.919 105.701C129.919 105.6 129.716 105.498 129.412 105.498C129.158 105.498 128.904 105.752 128.904 106.057Z" fill="#B61111"/>
<path id="Vector_72" d="M17.7624 107.021C17.7624 107.275 18.0161 107.528 18.2699 107.528C18.5744 107.528 18.7774 107.275 18.7774 107.021C18.7774 106.716 18.5744 106.513 18.2699 106.513C18.0161 106.513 17.7624 106.716 17.7624 107.021Z" fill="#B61111"/>
<path id="Vector_73" d="M127.636 107.528C127.483 107.782 127.585 108.036 127.839 108.036C128.143 108.036 128.397 107.782 128.397 107.528C128.397 107.224 128.295 107.021 128.194 107.021C128.042 107.021 127.788 107.224 127.636 107.528Z" fill="#B61111"/>
<path id="Vector_74" d="M20.2999 110.573C20.2999 110.827 20.5536 111.081 20.8581 111.081C21.1119 111.081 21.2134 110.827 21.0611 110.573C20.9089 110.269 20.6551 110.066 20.5029 110.066C20.4014 110.066 20.2999 110.269 20.2999 110.573Z" fill="#B61111"/>
<path id="Vector_75" d="M125.352 111.081C125.352 111.335 125.605 111.588 125.859 111.588C126.164 111.588 126.367 111.335 126.367 111.081C126.367 110.776 126.164 110.573 125.859 110.573C125.605 110.573 125.352 110.776 125.352 111.081Z" fill="#B61111"/>
<path id="Vector_76" d="M21.5686 112.603C21.7209 112.857 21.9746 113.111 22.1269 113.111C22.2284 113.111 22.3299 112.857 22.3299 112.603C22.3299 112.299 22.0761 112.096 21.7716 112.096C21.5179 112.096 21.4164 112.299 21.5686 112.603Z" fill="#B61111"/>
<path id="Vector_77" d="M124.083 112.603C123.931 112.857 124.032 113.111 124.286 113.111C124.591 113.111 124.844 112.857 124.844 112.603C124.844 112.299 124.743 112.096 124.641 112.096C124.489 112.096 124.235 112.299 124.083 112.603Z" fill="#B61111"/>
<path id="Vector_78" d="M22.8373 114.126C22.8373 114.38 23.0911 114.633 23.3448 114.633C23.6493 114.633 23.8523 114.38 23.8523 114.126C23.8523 113.821 23.6493 113.618 23.3448 113.618C23.0911 113.618 22.8373 113.821 22.8373 114.126Z" fill="#B61111"/>
<path id="Vector_79" d="M121.546 116.156C121.698 116.41 121.952 116.663 122.104 116.663C122.205 116.663 122.307 116.41 122.307 116.156C122.307 115.851 122.053 115.648 121.749 115.648C121.495 115.648 121.393 115.851 121.546 116.156Z" fill="#B61111"/>
<path id="Vector_80" d="M25.3748 117.171C25.3748 117.424 25.6286 117.678 25.8823 117.678C26.1868 117.678 26.3898 117.424 26.3898 117.171C26.3898 116.866 26.1868 116.663 25.8823 116.663C25.6286 116.663 25.3748 116.866 25.3748 117.171Z" fill="#B61111"/>
<path id="Vector_81" d="M119.769 117.678C119.769 117.932 120.023 118.186 120.277 118.186C120.581 118.186 120.784 117.932 120.784 117.678C120.784 117.374 120.581 117.171 120.277 117.171C120.023 117.171 119.769 117.374 119.769 117.678Z" fill="#B61111"/>
<path id="Vector_82" d="M26.8973 118.693C26.8973 118.947 27.1511 119.201 27.4048 119.201C27.7093 119.201 27.9123 118.947 27.9123 118.693C27.9123 118.389 27.7093 118.186 27.4048 118.186C27.1511 118.186 26.8973 118.389 26.8973 118.693Z" fill="#B61111"/>
<path id="Vector_83" d="M118.247 119.201C118.247 119.455 118.501 119.708 118.754 119.708C119.059 119.708 119.262 119.455 119.262 119.201C119.262 118.896 119.059 118.693 118.754 118.693C118.501 118.693 118.247 118.896 118.247 119.201Z" fill="#B61111"/>
<path id="Vector_84" d="M28.4198 120.216C28.4198 120.47 28.6736 120.723 28.9273 120.723C29.2318 120.723 29.4348 120.47 29.4348 120.216C29.4348 119.911 29.2318 119.708 28.9273 119.708C28.6736 119.708 28.4198 119.911 28.4198 120.216Z" fill="#B61111"/>
<path id="Vector_85" d="M116.978 120.723C117.13 120.977 117.384 121.231 117.536 121.231C117.638 121.231 117.739 120.977 117.739 120.723C117.739 120.419 117.486 120.216 117.181 120.216C116.927 120.216 116.826 120.419 116.978 120.723Z" fill="#B61111"/>
<path id="Vector_86" d="M115.456 121.738C115.303 121.992 115.405 122.246 115.659 122.246C115.963 122.246 116.217 121.992 116.217 121.738C116.217 121.434 116.115 121.231 116.014 121.231C115.862 121.231 115.608 121.434 115.456 121.738Z" fill="#B61111"/>
<path id="Vector_87" d="M31.7186 123.261C31.8708 123.515 32.1246 123.768 32.2768 123.768C32.3783 123.768 32.4798 123.515 32.4798 123.261C32.4798 122.956 32.2261 122.753 31.9216 122.753C31.6678 122.753 31.5663 122.956 31.7186 123.261Z" fill="#B61111"/>
<path id="Vector_88" d="M113.679 123.261C113.679 123.515 113.933 123.768 114.187 123.768C114.491 123.768 114.694 123.515 114.694 123.261C114.694 122.956 114.491 122.753 114.187 122.753C113.933 122.753 113.679 122.956 113.679 123.261Z" fill="#B61111"/>
<path id="Vector_89" d="M33.4948 124.276C33.4948 124.53 33.7486 124.783 34.0531 124.783C34.3068 124.783 34.4083 124.53 34.2561 124.276C34.1038 123.971 33.8501 123.768 33.6978 123.768C33.5963 123.768 33.4948 123.971 33.4948 124.276Z" fill="#B61111"/>
<path id="Vector_90" d="M112.157 124.834C112.157 125.088 112.411 125.189 112.664 125.037C112.969 124.885 113.172 124.631 113.172 124.479C113.172 124.377 112.969 124.276 112.664 124.276C112.411 124.276 112.157 124.53 112.157 124.834Z" fill="#B61111"/>
<path id="Vector_91" d="M36.7935 126.813C36.6413 127.067 36.7428 127.321 36.9965 127.321C37.301 127.321 37.5548 127.067 37.5548 126.813C37.5548 126.509 37.4533 126.306 37.3518 126.306C37.1995 126.306 36.9458 126.509 36.7935 126.813Z" fill="#B61111"/>
<path id="Vector_92" d="M106.828 128.336C106.98 128.59 107.234 128.843 107.386 128.843C107.488 128.843 107.589 128.59 107.589 128.336C107.589 128.031 107.336 127.828 107.031 127.828C106.777 127.828 106.676 128.031 106.828 128.336Z" fill="#B61111"/>
<path id="Vector_93" d="M40.346 128.843C40.1938 129.097 40.2953 129.351 40.549 129.351C40.8535 129.351 41.1073 129.097 41.1073 128.843C41.1073 128.539 41.0058 128.336 40.9043 128.336C40.752 128.336 40.4983 128.539 40.346 128.843Z" fill="#B61111"/>
<path id="Vector_94" d="M105.052 129.402C105.052 129.655 105.306 129.757 105.559 129.605C105.864 129.452 106.067 129.199 106.067 129.046C106.067 128.945 105.864 128.843 105.559 128.843C105.306 128.843 105.052 129.097 105.052 129.402Z" fill="#B61111"/>
<path id="Vector_95" d="M103.022 130.366C103.022 130.62 103.276 130.873 103.529 130.873C103.834 130.873 104.037 130.62 104.037 130.366C104.037 130.061 103.834 129.858 103.529 129.858C103.276 129.858 103.022 130.061 103.022 130.366Z" fill="#B61111"/>
<path id="Vector_96" d="M44.1523 131.431C44.1523 131.685 44.406 131.787 44.6597 131.634C44.9642 131.482 45.1672 131.228 45.1672 131.076C45.1672 130.975 44.9642 130.873 44.6597 130.873C44.406 130.873 44.1523 131.127 44.1523 131.431Z" fill="#B61111"/>
<path id="Vector_97" d="M46.1823 131.888C46.1823 132.142 46.436 132.396 46.7405 132.396C46.9942 132.396 47.0957 132.142 46.9435 131.888C46.7912 131.584 46.5375 131.381 46.3852 131.381C46.2838 131.381 46.1823 131.584 46.1823 131.888Z" fill="#B61111"/>
<path id="Vector_98" d="M47.9585 132.903C48.1107 133.157 48.3645 133.411 48.5167 133.411C48.6182 133.411 48.7197 133.157 48.7197 132.903C48.7197 132.599 48.466 132.396 48.1615 132.396C47.9077 132.396 47.8062 132.599 47.9585 132.903Z" fill="#B61111"/>
<path id="Vector_99" d="M97.4395 132.903C97.4395 133.157 97.6932 133.411 97.947 133.411C98.2514 133.411 98.4544 133.157 98.4544 132.903C98.4544 132.599 98.2514 132.396 97.947 132.396C97.6932 132.396 97.4395 132.599 97.4395 132.903Z" fill="#B61111"/>
<path id="Vector_100" d="M49.9885 133.411C49.8362 133.665 49.9377 133.918 50.1915 133.918C50.496 133.918 50.7497 133.665 50.7497 133.411C50.7497 133.106 50.6482 132.903 50.5467 132.903C50.3945 132.903 50.1407 133.106 49.9885 133.411Z" fill="#B61111"/>
<path id="Vector_101" d="M95.4094 133.918C95.4094 134.172 95.6632 134.426 95.9169 134.426C96.2214 134.426 96.4244 134.172 96.4244 133.918C96.4244 133.614 96.2214 133.411 95.9169 133.411C95.6632 133.411 95.4094 133.614 95.4094 133.918Z" fill="#B61111"/>
<path id="Vector_102" d="M51.7647 134.426C51.7647 134.679 52.0185 134.933 52.2722 134.933C52.5767 134.933 52.7797 134.679 52.7797 134.426C52.7797 134.121 52.5767 133.918 52.2722 133.918C52.0185 133.918 51.7647 134.121 51.7647 134.426Z" fill="#B61111"/>
<path id="Vector_103" d="M93.3795 134.426C93.3795 134.679 93.6333 134.933 93.887 134.933C94.1915 134.933 94.3945 134.679 94.3945 134.426C94.3945 134.121 94.1915 133.918 93.887 133.918C93.6333 133.918 93.3795 134.121 93.3795 134.426Z" fill="#B61111"/>
<path id="Vector_104" d="M53.7947 134.933C53.7947 135.187 54.0485 135.441 54.3022 135.441C54.6067 135.441 54.8097 135.187 54.8097 134.933C54.8097 134.629 54.6067 134.426 54.3022 134.426C54.0485 134.426 53.7947 134.629 53.7947 134.933Z" fill="#B61111"/>
<path id="Vector_105" d="M55.8246 135.441C55.8246 135.694 56.0784 135.948 56.3321 135.948C56.6366 135.948 56.8396 135.694 56.8396 135.441C56.8396 135.136 56.6366 134.933 56.3321 134.933C56.0784 134.933 55.8246 135.136 55.8246 135.441Z" fill="#B61111"/>
<path id="Vector_106" d="M60.1384 136.456C59.9861 136.71 60.0876 136.963 60.3414 136.963C60.6459 136.963 60.8996 136.71 60.8996 136.456C60.8996 136.151 60.7981 135.948 60.6966 135.948C60.5444 135.948 60.2906 136.151 60.1384 136.456Z" fill="#B61111"/>
<path id="Vector_107" d="M83.2295 136.963C83.2295 137.217 83.4832 137.471 83.737 137.471C84.0415 137.471 84.2445 137.217 84.2445 136.963C84.2445 136.659 84.0415 136.456 83.737 136.456C83.4832 136.456 83.2295 136.659 83.2295 136.963Z" fill="#B61111"/>
<path id="Vector_108" d="M64.4521 137.521C64.4521 137.775 64.7059 137.877 64.9596 137.724C65.2641 137.572 65.4671 137.318 65.4671 137.166C65.4671 137.065 65.2641 136.963 64.9596 136.963C64.7059 136.963 64.4521 137.217 64.4521 137.521Z" fill="#B61111"/>
<path id="Vector_109" d="M79.1696 137.471C79.1696 137.724 79.4233 137.978 79.7278 137.978C79.9816 137.978 80.0831 137.724 79.9308 137.471C79.7786 137.166 79.5248 136.963 79.3726 136.963C79.2711 136.963 79.1696 137.166 79.1696 137.471Z" fill="#B61111"/>
<path id="Vector_110" d="M81.1996 137.521C81.1996 137.775 81.4533 137.877 81.7071 137.724C82.0116 137.572 82.2146 137.318 82.2146 137.166C82.2146 137.065 82.0116 136.963 81.7071 136.963C81.4533 136.963 81.1996 137.217 81.1996 137.521Z" fill="#B61111"/>
<path id="Vector_111" d="M70.5421 138.029C70.5421 138.283 70.7959 138.384 71.0496 138.232C71.3541 138.08 71.5571 137.826 71.5571 137.674C71.5571 137.572 71.3541 137.471 71.0496 137.471C70.7959 137.471 70.5421 137.724 70.5421 138.029Z" fill="#B61111"/>
<path id="Vector_112" d="M72.572 137.978C72.572 138.232 72.8258 138.486 73.0795 138.486C73.384 138.486 73.587 138.232 73.587 137.978C73.587 137.674 73.384 137.471 73.0795 137.471C72.8258 137.471 72.572 137.674 72.572 137.978Z" fill="#B61111"/>
<path id="Vector_113" d="M74.6021 137.978C74.6021 138.232 74.8558 138.486 75.1095 138.486C75.414 138.486 75.617 138.232 75.617 137.978C75.617 137.674 75.414 137.471 75.1095 137.471C74.8558 137.471 74.6021 137.674 74.6021 137.978Z" fill="#B61111"/>
<path id="Vector_114" d="M29.0796 99.1039C28.6228 100.068 28.0646 100.423 27.0496 100.423H25.6793L26.8466 101.235C27.7093 101.844 27.9123 102.352 27.7093 103.265C27.4048 104.382 27.4556 104.433 28.6736 103.874C29.6378 103.468 30.0945 103.468 30.7543 104.027C31.5663 104.686 31.617 104.585 31.3125 103.367C31.008 102.25 31.1603 101.844 32.0738 101.337C33.241 100.728 33.241 100.728 31.7185 100.423C30.7035 100.271 30.1453 99.8144 29.9423 98.9516L29.6885 97.7336L29.0796 99.1039Z" fill="#B61111"/>
<path id="Vector_115" d="M116.623 99.0024C116.521 99.8144 116.014 100.22 114.948 100.423C113.426 100.728 113.426 100.728 114.593 101.337C115.506 101.844 115.659 102.25 115.354 103.367C115.05 104.585 115.1 104.686 115.912 104.027C116.572 103.468 117.029 103.418 118.044 103.925C119.313 104.483 119.363 104.433 119.059 103.265C118.805 102.301 119.008 101.794 119.871 101.235L120.987 100.423H119.617C118.602 100.423 118.095 100.068 117.739 99.1546C117.13 97.5814 116.826 97.5306 116.623 99.0024Z" fill="#B61111"/>
<path id="Vector_116" d="M39.2295 111.284C36.7428 115.344 36.6413 115.598 37.504 116.359C38.6713 117.425 38.925 117.374 41.0058 115.851L42.7312 114.481L41.564 116.613L40.346 118.744L41.6148 119.708L42.8835 120.673L46.436 117.171C49.7855 113.821 49.9377 113.568 49.075 112.756C48.263 111.944 48.1107 111.994 45.8777 114.126C43.4417 116.46 43.3402 116.156 45.624 113.212C46.5882 111.893 46.7405 111.284 46.3852 110.675C45.4717 109.254 44.812 109.457 42.579 111.69C40.4475 113.872 40.4983 113.618 42.9342 109.812C43.594 108.797 43.6447 108.391 43.1372 107.782C42.782 107.376 42.376 107.021 42.173 107.021C41.97 107.021 40.6505 108.949 39.2295 111.284Z" fill="#B61111"/>
<path id="Vector_117" d="M103.58 107.731C103.073 108.29 103.123 108.848 103.783 110.066L104.595 111.69L103.073 110.523C101.652 109.457 101.398 109.457 100.687 110.117C99.9769 110.827 100.18 111.132 102.717 112.857C104.291 113.923 105.915 115.344 106.321 116.004C107.133 117.222 108.3 117.526 108.858 116.613C109.061 116.359 108.655 115.242 107.945 114.227C107.234 113.212 106.27 111.233 105.813 109.914C104.747 107.122 104.392 106.767 103.58 107.731Z" fill="#B61111"/>
<path id="Vector_118" d="M94.7497 113.771C92.7704 114.938 92.3645 116.511 94.1407 116.257C94.9527 116.156 95.6124 116.917 97.0842 119.455C99.0634 122.906 99.2664 123.058 100.484 122.246C101.296 121.738 100.941 120.774 98.3529 116.511C97.4394 114.938 97.3379 114.481 97.8962 114.177C98.6574 113.669 98.2007 112.603 97.2872 112.603C96.9319 112.654 95.8154 113.162 94.7497 113.771Z" fill="#B61111"/>
<path id="Vector_119" d="M49.7855 118.541C47.6032 121.992 47.1972 122.956 47.7555 123.312C48.7197 123.921 49.5825 123.87 49.9885 123.261C50.5467 122.347 51.3587 122.703 51.0035 123.718C50.8005 124.428 51.0035 124.783 51.7647 125.037C52.3737 125.24 52.9827 125.24 53.135 125.088C53.6425 124.631 55.8247 116.054 55.5709 115.598C55.4187 115.395 54.7082 115.039 53.8962 114.735C52.526 114.278 52.4245 114.38 49.7855 118.541ZM52.6782 119.607C52.0692 121.18 51.2572 121.789 51.2572 120.723C51.2572 120.064 52.8305 117.577 53.0842 117.831C53.1857 117.932 52.9827 118.744 52.6782 119.607Z" fill="#B61111"/>
<path id="Vector_120" d="M88.8119 116.866C88.8119 117.272 89.0149 118.237 89.3194 119.049C89.8269 120.47 89.8269 120.47 88.3552 118.744C86.8835 117.069 85.2595 116.816 85.2595 118.338C85.2595 119.861 88.2537 127.067 88.8627 127.067C89.6239 127.067 89.7254 125.748 89.1164 123.768C88.7612 122.652 88.9134 122.753 90.3852 124.428C91.6539 125.849 92.3137 126.204 92.8719 125.849C93.9377 125.139 91.0957 116.156 89.7254 116.156C89.2179 116.156 88.8119 116.46 88.8119 116.866Z" fill="#B61111"/>
<path id="Vector_121" d="M58.9204 119.049C57.9561 122.906 57.1949 126.813 57.3979 127.016C57.4994 127.118 58.0576 127.321 58.6159 127.422C59.4279 127.524 59.6816 127.168 60.0876 125.392C60.6966 122.55 61.4071 122.652 61.2548 125.646C61.2041 127.524 61.3056 128.082 62.0161 128.234C62.6758 128.336 62.9296 127.879 63.1833 126.103C63.3863 124.885 63.3863 123.616 63.2341 123.362C63.0818 123.058 63.2848 122.753 63.6908 122.55C64.1476 122.398 64.4521 121.586 64.4521 120.52C64.4521 118.592 63.8431 118.034 61.0518 117.475C59.5294 117.12 59.4279 117.171 58.9204 119.049ZM62.1176 120.876C61.9653 121.332 61.5593 121.738 61.3056 121.738C61.0011 121.738 60.9503 121.383 61.1026 120.926C61.2548 120.47 61.4071 119.861 61.4071 119.556C61.4071 119.15 61.5593 119.15 61.9146 119.505C62.2191 119.81 62.3206 120.419 62.1176 120.876Z" fill="#B61111"/>
<path id="Vector_122" d="M68.3091 120.419C67.7508 124.073 67.5478 128.843 68.0046 128.843C68.2076 128.843 68.7658 128.996 69.2226 129.148C69.7808 129.351 69.9838 128.945 70.1361 127.219C70.2376 126.052 70.4913 125.088 70.7958 125.189C71.0496 125.24 71.2018 126.204 71.1003 127.321C70.9988 129.199 71.0496 129.351 72.3183 129.351C73.5871 129.351 73.6378 129.249 73.5871 126.407C73.5363 124.834 73.6378 122.956 73.8408 122.246C74.2468 120.419 73.4856 119.607 70.8466 119.201C68.5628 118.846 68.5121 118.846 68.3091 120.419ZM71.5571 121.992C71.5571 122.703 71.3541 123.261 71.0496 123.261C70.7958 123.261 70.5421 122.703 70.5421 121.992C70.5421 121.282 70.7958 120.723 71.0496 120.723C71.3541 120.723 71.5571 121.282 71.5571 121.992Z" fill="#B61111"/>
<path id="Vector_123" d="M77.647 123.921V129.198L78.9158 128.945C79.7278 128.792 80.1845 128.386 80.1845 127.777C80.1845 126.509 80.9965 126.56 81.3518 127.777C81.504 128.488 81.91 128.691 82.6713 128.488C83.9907 128.133 83.9907 127.879 82.519 122.956C81.3518 118.947 81.3518 118.947 79.474 118.795L77.647 118.643V123.921ZM80.6413 124.377C80.692 124.885 80.489 125.291 80.1845 125.291C79.9308 125.291 79.677 124.428 79.7278 123.362C79.7278 121.84 79.8293 121.688 80.1845 122.5C80.4383 123.058 80.6413 123.921 80.6413 124.377Z" fill="#B61111"/>
</g>
</g>
</svg>
